<?xml version="1.0" encoding="utf-8"?>
<!-- Generator: Adobe Illustrator 25.0.0, SVG Export Plug-In . SVG Version: 6.00 Build 0)  -->
<svg version="1.1" id="Layer_1" xmlns="http://www.w3.org/2000/svg" xmlns:xlink="http://www.w3.org/1999/xlink" x="0px" y="0px"
	 viewBox="0 0 692.3 200" style="enable-background:new 0 0 692.3 200;" xml:space="preserve">
<style type="text/css">
	.st0{fill:#FFFFFF;}
	.st1{fill:#FFFFFF;}
	.st2{fill:#FFFFFF;}
	.st3{fill:#FFFFFF;}
	.st4{fill:#FFFFFF;}
	.st5{fill:#FFFFFF;}
	.st6{fill:#FFFFFF;}
	.st7{fill:#FFFFFF;}
	.st8{fill:#FFFFFF;}
</style>
<g>
	<path class="st0" d="M60.8,114.3c-3.5,0-6.6,0-10.1,0c-0.4-5.1-0.8-10-1.1-14.9c-0.6-8.1-1.2-16.2-1.5-24.3c-0.1-1.3,1-3.3,2.2-4
		c12-7.1,24-14.1,36.2-20.9c1.1-0.6,3-0.5,4.1,0.1c12,6.8,23.9,13.7,35.8,20.7c1.1,0.7,2.2,2.6,2.2,3.9c0.2,13.5,0.2,27.1,0,40.6
		c0,1.6-1.2,3.8-2.6,4.6c-24.9,14.6-49.9,29-75,43.3c-1.2,0.7-3.6,0.7-4.9-0.1c-11.8-6.6-23.4-13.5-35.2-20.1
		c-2-1.1-2.6-2.4-2.6-4.7c0.1-28.8,0.1-57.5,0-86.3c0-2.3,0.7-3.5,2.7-4.7C36,33.3,61,18.9,86,4.6c1.2-0.7,3.6-0.7,4.8,0
		c25.2,14.4,50.3,28.9,75.3,43.5c1.1,0.7,2.2,2.6,2.2,3.9c0.1,29.1,0.1,58.1,0,87.2c0,1.3-0.9,3.1-1.9,3.7
		c-25.7,14.9-51.4,29.7-77.2,44.5c-0.1,0.1-0.3,0-1.1,0.1c0-5.3-0.2-10.7,0.2-15.9c0.1-1.1,2-2.2,3.2-2.9
		c19.3-11.2,38.6-22.4,58-33.4c2.7-1.5,3.7-3.2,3.7-6.3c-0.1-22.4-0.1-44.7,0-67.1c0-2.8-0.9-4.3-3.3-5.7
		c-19.6-11.2-39.2-22.5-58.7-33.9c-2.2-1.3-3.6-1.1-5.7,0.1C65.9,33.8,46.2,45.1,26.5,56.4c-2.1,1.2-2.9,2.5-2.9,5
		c0.1,22.8,0,45.6,0.2,68.4c0,1.6,1.2,3.8,2.5,4.6c6.5,4.1,13.2,7.9,19.9,11.5c1.3,0.7,3.6,0.7,4.8-0.1
		c19.9-11.3,39.7-22.8,59.5-34.2c2.1-1.2,3.1-2.4,3-4.9c-0.2-7.5,0.1-15.1-0.2-22.6c0-1.5-1.2-3.4-2.4-4.2
		c-6.5-4-13.3-7.7-19.9-11.6c-2-1.2-3.4-1.2-5.4,0c-6.6,4-13.2,7.9-19.9,11.5c-2.3,1.2-2.8,2.7-2.9,5c-0.4,9.1-1.1,18.2-1.7,27.2
		C61.2,112.6,61,113.3,60.8,114.3z"/>
	<path class="st1" d="M469.4,80.8c5.5-5.6,11-9.5,18.1-10.4c13.2-1.7,23.7,3.1,31.3,14c10.6,15.1,10.6,39.1,0.2,54.4
		c-11.4,16.9-34.5,19.6-47.6,5.8c-0.3-0.4-0.8-0.6-2-1.3c0,4,0,7.3,0,10.6c0,10.8-0.1,21.6,0.1,32.4c0.1,3.8-1.4,5.5-5.2,5.4
		c-5.4-0.1-10.8-0.1-16.2,0c-3.6,0.1-5-1.6-5-5.2c0.1-36.6,0.1-73.2,0-109.7c0-3.9,1.6-5.4,5.4-5.3c5.1,0.1,10.3,0,15.4,0
		c5.6,0,5.7,0.1,5.7,5.8C469.4,78.1,469.4,79,469.4,80.8z M500.1,112c0.1-9.4-6.8-16.8-15.6-16.8c-8.5,0-15.3,6.9-15.5,16
		c-0.2,9.6,6.3,16.9,15.3,17C493,128.3,500.1,121.1,500.1,112z"/>
	<path class="st2" d="M221.2,115.4c0,11.1-0.1,21.4,0.1,31.6c0.1,3.8-1.3,5-5,4.9c-5.3-0.2-10.5,0-15.8-0.1c-5.3,0-6.2-0.9-6.2-6.2
		c0-19.4,0-38.7,0-58.1c0-13.8,0-27.6,0-41.4c0-5.5,0.9-6.4,6.4-6.5c12.7,0,25.4-0.1,38,0c21.2,0.1,35.6,13.7,37.2,34.9
		c1.5,19.9-12.2,37.9-31.7,40.7C236.9,116.2,229.2,115.4,221.2,115.4z M221.4,90.9c5.4,0,10.4,0.3,15.4-0.1c7.6-0.7,12-5.8,12-13.3
		c0-7.6-4.4-12.6-12.1-13.2c-5-0.4-10.1-0.1-15.3-0.1C221.4,73.3,221.4,82,221.4,90.9z"/>
	<path class="st3" d="M390.7,69.3c23.8,0,41.9,18.6,41.9,42.9c0,23.2-18.9,41.9-42.2,41.9c-23.4,0-42-18.8-42.2-42.4
		C348,88,366.9,69.3,390.7,69.3z M406.3,112.1c0.3-9.4-6.3-16.9-15.2-17.3c-9.2-0.4-16.3,6.6-16.5,16.3c-0.2,9.3,6.5,16.8,15.4,17.1
		C399,128.5,406,121.5,406.3,112.1z"/>
	<path class="st1" d="M560.7,120.1c3.5,8.7,11.7,12.5,22.2,10.6c3.6-0.6,7.1-1.8,10.6-3.2c2.6-1,4.3-0.7,5.8,1.6
		c2.6,3.8,5.2,7.4,7.9,11.1c1.4,1.9,1.8,3.7-0.5,5c-16.6,9.8-43.7,13.6-61.1-5.9c-20.8-23.3-9.6-61.4,20.2-68.6
		c21.7-5.2,41.7,8.1,47,31.1c1,4.3,1.3,8.7,1.8,13.1c0.4,3.6-1,5.1-4.8,5.1c-15.4-0.2-30.8-0.1-46.1-0.1
		C562.8,120.1,562,120.1,560.7,120.1z M588.1,101.2c-1.5-6.9-6.8-11-13.7-11c-6.5,0-11.8,4.3-13.4,11
		C570.1,101.2,579.1,101.2,588.1,101.2z"/>
	<path class="st4" d="M650.7,82.3c9.2-12.9,18.5-13.8,28.9-11c3.9,1,5.3,3.2,3.9,7.3c-1.8,5.2-3.2,10.6-4.6,15.9
		c-0.8,2.7-2.1,3.5-5,2.7c-13.6-3.6-23,3.6-23.1,17.8c-0.1,10.2,0,20.5,0,30.7c0,5.3-0.7,6-5.8,6.1c-5.3,0-10.5,0-15.8,0
		c-3.3,0-4.9-1.4-4.9-4.9c0.1-23.5,0.1-46.9,0-70.4c0-3.4,1.6-5,4.9-5c5.6,0,11.1,0.2,16.7-0.1c4-0.2,5.5,1.4,5,5.3
		C650.5,78.3,650.7,79.9,650.7,82.3z"/>
	<path class="st2" d="M314.3,82.2c5.1-7,10.4-11.6,18.3-12.2c0.8-0.1,1.7-0.1,2.5-0.1c13.2,1,13.8,1.8,10.3,14.3
		c-1,3.4-2,6.8-2.9,10.2c-0.7,2.5-1.8,3.4-4.6,2.7c-14.5-3.5-22.8,2.7-23.4,17.7c-0.4,10.2-0.1,20.5-0.1,30.7c0,5.2-0.7,6-5.9,6
		c-5.1,0-10.2-0.1-15.4,0c-3.5,0.1-5.2-1.2-5.2-5c0.1-23.5,0.1-46.9,0-70.4c0-3.5,1.5-4.9,4.8-4.9c5.4,0,10.8,0.2,16.2-0.1
		c4.1-0.2,5.9,1.2,5.4,5.4C314.1,78.2,314.3,79.6,314.3,82.2z"/>
	<path class="st5" d="M95.6,109.4c-5.9,0-5.9,0-5.9-5.8c0-5.7,0-5.7,6.1-5.7c5.6,0,5.6,0,5.6,6C101.3,109.4,101.3,109.4,95.6,109.4z
		"/>
	<path class="st6" d="M75.7,103.6c0-5.6,0-5.6,5.8-5.6c5.5,0,5.5,0,5.5,6c0,5.4,0,5.4-6.2,5.4C75.7,109.4,75.7,109.4,75.7,103.6z"/>
	<path class="st7" d="M95.4,95.2c-5.7,0-5.7,0-5.7-5.9c0-5.5,0-5.5,6.2-5.5c5.4,0,5.4,0,5.4,5.7C101.3,95.2,101.3,95.2,95.4,95.2z"
		/>
	<path class="st8" d="M81.2,95.2c-5.4,0-5.4,0-5.4-6.1c0-5.2,0-5.2,5.9-5.2c5.4,0,5.4,0,5.4,6.1C87.1,95.2,87.1,95.2,81.2,95.2z"/>
</g>
</svg>
